<svg xmlns="http://www.w3.org/2000/svg" width="48" height="48" viewBox="0 0 48 48">
  <path fill="currentColor" d="M24.8304,24.1153 C27.1434,21.8333 29.4704,19.5653 31.8754,17.3753 C34.2544,15.1923 36.6864,13.0623 39.2304,11.0443 C38.5984,10.3143 37.9164,9.6323 37.1864,9.0003 C35.1674,11.5433 33.0384,13.9753 30.8544,16.3553 C28.6644,18.7603 26.3974,21.0883 24.1154,23.3993 C21.8324,21.0883 19.5654,18.7603 17.3744,16.3553 C15.1914,13.9763 13.0614,11.5443 11.0434,9.0003 C10.3134,9.6323 9.6314,10.3143 8.9994,11.0433 C11.5434,13.0623 13.9764,15.1913 16.3554,17.3753 C18.7604,19.5653 21.0874,21.8323 23.3994,24.1153 C21.0874,26.3983 18.7604,28.6653 16.3554,30.8553 C13.9764,33.0393 11.5434,35.1683 8.9994,37.1873 C9.6314,37.9163 10.3134,38.5983 11.0434,39.2303 C13.0614,36.6863 15.1914,34.2543 17.3744,31.8753 C19.5654,29.4703 21.8324,27.1423 24.1154,24.8313 C26.3974,27.1423 28.6644,29.4703 30.8544,31.8753 C33.0384,34.2553 35.1674,36.6873 37.1864,39.2303 C37.9164,38.5983 38.5984,37.9163 39.2304,37.1863 C36.6864,35.1683 34.2544,33.0383 31.8754,30.8553 C29.4704,28.6653 27.1434,26.3973 24.8304,24.1153"/>
</svg>
