<svg width="48" height="48" viewBox="0 0 48 48" xmlns="http://www.w3.org/2000/svg">
  <path fill="currentColor" d="M44.7871 15.6134c-.4122 3.3515-2.0174 6.264-4.2254 8.4861-2.2278 2.218-5.1868 3.703-8.4847 4.066-3.2654.3529-6.919-.6128-9.4842-3.0693-2.448-2.5722-3.4208-6.216-3.0706-9.4828.3571-3.3021 1.8508-6.2598 4.0673-8.4875 2.2263-2.2024 5.1374-3.8005 8.4875-4.2127 3.3205-.4348 6.9995.6917 9.4828 3.216 2.5242 2.4819 3.6593 6.1595 3.2273 9.4842m2.8137 0c-.4038-4.0814-2.314-7.745-5.0429-10.4823C39.8233 2.402 36.16.4849 32.077.0769c-4.056-.439-8.4889 1.008-11.4804 4.056-3.0353 2.9916-4.5854 7.3765-4.2014 11.4805.305 3.9219 2.1925 7.44 4.7774 10.0504-3.2202 3.3416-6.6494 6.4743-10.145 9.5407-3.607 3.2202-7.279 6.3755-11.0272 9.4517l2.9816 3.0085c3.1101-3.7214 6.2965-7.3666 9.5478-10.9454 3.0974-3.4715 6.2612-6.8767 9.6353-10.0701 2.6005 2.51 6.055 4.3454 9.912 4.646 4.104.3912 8.489-1.1674 11.479-4.2027 3.0452-2.9972 4.4838-7.4273 4.0448-11.479" fill-rule="evenodd"/>
</svg>
